<?xml version="1.0" encoding="utf-8"?>
<!-- Generator: Adobe Illustrator 23.1.1, SVG Export Plug-In . SVG Version: 6.00 Build 0)  -->
<svg version="1.1" id="Layer_1" xmlns="http://www.w3.org/2000/svg" xmlns:xlink="http://www.w3.org/1999/xlink" x="0px" y="0px"
	 viewBox="0 0 270 58" style="enable-background:new 0 0 270 58;" xml:space="preserve">
<style type="text/css">
	.st0{fill:#FFFFFF;}
</style>
<g>
	<g>
		<path class="st0" d="M28.42,22.22c0-2.04-1.2-3.52-3.53-3.52h-4.41v7.17h4.49C27.17,25.87,28.42,24.26,28.42,22.22z"/>
		<path class="st0" d="M25.45,30.03h-4.97v8.21h0.88h4.08c2.57,0,4.01-1.72,4.01-4.12C29.46,31.75,27.97,30.03,25.45,30.03z"/>
		<path class="st0" d="M46.26,6.34H1.23v45.03h45.03V20.83l-3.73-3.2l3.73-3.47V6.34z M25.05,42.2h-7.09h-2.73V18.21h-2.6v-3.96
			h12.3c5.12,0,8.81,2.64,8.81,7.33c0,3.16-1.72,5.2-3.44,6.09v0.08c3.08,0.92,4.57,3.8,4.57,6.69
			C34.86,40.12,30.34,42.2,25.05,42.2z"/>
	</g>
	<path class="st0" d="M71.23,30.08H58.04V7.02h11.98c4.26,0,6.99,2.18,6.99,5.82c0,1.66-0.8,4.05-3.64,5.13
		c3.15,0.93,4.43,3.19,4.43,5.64C77.81,26.93,75.42,30.08,71.23,30.08z M68.43,11.66h-4.47v4.6h4.5c1.9,0,2.63-1.07,2.63-2.42
		S70.27,11.66,68.43,11.66z M69.16,20.67h-5.2v4.71h5.2c1.94,0,2.73-1,2.73-2.35C71.89,21.6,70.96,20.67,69.16,20.67z"/>
	<path class="st0" d="M97.45,30.08l-5.68-7.86h-4.12v7.86h-5.92V7.02h12.92c4.81,0,7.72,3.29,7.72,7.48c0,2.88-1.39,5.51-3.88,6.82
		l6.44,8.76H97.45z M93.65,11.8h-5.99v5.82h5.99c1.49,0,2.81-1.28,2.81-2.98C96.45,12.94,95.24,11.8,93.65,11.8z"/>
	<path class="st0" d="M124.32,30.08l-1.56-4.33h-7.83l-1.59,4.33h-5.85l8.55-23.06h5.61l8.52,23.06H124.32z M118.85,12.88
		l-2.53,8.41h5.02L118.85,12.88z"/>
	<path class="st0" d="M139.12,12.15v3.5h11.08v5.12h-11.08v9.31h-5.92V7.02h18.32v5.12H139.12z"/>
	<path class="st0" d="M168.65,12.29v17.8h-5.92v-17.8h-7.48V7.02h20.88v5.26H168.65z"/>
	<path class="st0" d="M189.46,30.46c-6.65,0-11.84-5.26-11.84-11.91c0-6.65,5.19-11.88,11.84-11.88c6.65,0,11.81,5.23,11.81,11.88
		C201.27,25.2,196.11,30.46,189.46,30.46z M189.46,11.94c-3.81,0-5.92,3.08-5.92,6.61c0,3.53,2.04,6.65,5.92,6.65
		c3.88,0,5.89-3.12,5.89-6.65C195.34,15.02,193.27,11.94,189.46,11.94z"/>
	<path class="st0" d="M220.55,30.08l-10.46-13.99v13.99h-5.71V7.02h5.71l10.46,13.95V7.02h5.68v23.06H220.55z"/>
	<path class="st0" d="M60.11,36.61v5.85h8.69v1.25h-8.69v7.68h-1.47V35.36h10.79v1.25H60.11z"/>
	<path class="st0" d="M78.5,51.66c-4.07,0-6.33-2.84-6.33-5.88V35.36h1.47v10.52c0,2.89,2.05,4.52,4.86,4.52
		c2.82,0,4.86-1.83,4.86-4.52V35.36h1.44v10.43C84.81,48.84,82.57,51.66,78.5,51.66z"/>
	<path class="st0" d="M89.07,51.4V35.36h10.69v1.25h-9.22v5.85h8.62v1.25h-8.62v6.43h9.22v1.25H89.07z"/>
	<path class="st0" d="M103.04,51.4V35.36h1.45v14.79h8.43v1.25H103.04z"/>
	<path class="st0" d="M126.78,44.87v6.53h-1.47v-6.53l-6.5-9.51h1.59l5.66,8.16l5.64-8.16h1.59L126.78,44.87z"/>
	<path class="st0" d="M140.94,51.66c-4.5,0-7.56-3.76-7.56-8.26c0-4.5,3.06-8.28,7.56-8.28c4.5,0,7.56,3.78,7.56,8.28
		C148.49,47.9,145.44,51.66,140.94,51.66z M140.94,36.37c-3.61,0-6.11,3.01-6.11,7.03c0,4.02,2.5,7,6.11,7c3.61,0,6.12-2.98,6.12-7
		C147.05,39.38,144.55,36.37,140.94,36.37z"/>
	<path class="st0" d="M158.06,51.66c-4.07,0-6.33-2.84-6.33-5.88V35.36h1.47v10.52c0,2.89,2.05,4.52,4.87,4.52
		c2.81,0,4.86-1.83,4.86-4.52V35.36h1.44v10.43C164.37,48.84,162.13,51.66,158.06,51.66z"/>
	<path class="st0" d="M180.78,51.4l-5.13-6.96h-5.59v6.96h-1.44V35.36h7.25c3.11,0,4.87,2.19,4.87,4.55c0,2-1.28,3.88-3.56,4.38
		l5.25,7.1H180.78z M175.87,36.61h-5.8v6.62h5.8c2.15,0,3.42-1.32,3.42-3.32C179.29,37.91,177.7,36.61,175.87,36.61z"/>
	<path class="st0" d="M197.98,51.4h-7.25V35.36h6.45c3.46,0,5.17,1.64,5.17,4.09c0,1.45-0.87,2.91-2.53,3.52
		c2.05,0.65,3.01,2.12,3.01,3.97C202.84,49.25,201.08,51.4,197.98,51.4z M197.23,36.61h-5.06v5.9h4.96c2.02,0,3.75-0.89,3.75-2.94
		C200.89,37.53,199.4,36.61,197.23,36.61z M197.83,43.72h-5.66v6.43h5.71c2.1,0,3.52-1.16,3.52-3.2
		C201.4,45.09,200.24,43.72,197.83,43.72z"/>
	<path class="st0" d="M218.42,51.4l-5.13-6.96h-5.59v6.96h-1.44V35.36h7.25c3.11,0,4.86,2.19,4.86,4.55c0,2-1.28,3.88-3.56,4.38
		l5.25,7.1H218.42z M213.51,36.61h-5.8v6.62h5.8c2.14,0,3.42-1.32,3.42-3.32C216.93,37.91,215.34,36.61,213.51,36.61z"/>
	<path class="st0" d="M234.62,51.4l-1.78-4.48h-7.87l-1.78,4.48h-1.47l6.65-16.04h1.06l6.67,16.04H234.62z M228.88,37.12l-3.44,8.62
		h6.91L228.88,37.12z"/>
	<path class="st0" d="M250.29,51.4L240,37.6v13.8h-1.4V35.36h1.4l10.28,13.77V35.36h1.42V51.4H250.29z"/>
	<path class="st0" d="M259.33,51.4h-3.2V35.36h3.2c5.47,0,9.44,3.4,9.44,8.02C268.77,48,264.79,51.4,259.33,51.4z M259.54,36.61
		h-1.97v13.53h1.97c3.88,0,7.76-2.46,7.76-6.77C267.3,39.07,263.42,36.61,259.54,36.61z"/>
</g>
</svg>
